<svg width="800" height="600" viewBox="0 0 800 600" fill="none" xmlns="http://www.w3.org/2000/svg">
<rect width="800" height="600" fill="#0F172A"/>
<path d="M0 0H800V600H0V0Z" fill="url(#paint0_linear)"/>
<!-- Abstract Graph -->
<path d="M100 450L250 300L350 380L550 150L700 200" stroke="#38BDF8" stroke-width="8" stroke-linecap="round" stroke-linejoin="round"/>
<circle cx="250" cy="300" r="10" fill="#38BDF8"/>
<circle cx="350" cy="380" r="10" fill="#38BDF8"/>
<circle cx="550" cy="150" r="10" fill="#38BDF8"/>
<circle cx="700" cy="200" r="10" fill="#38BDF8"/>
<!-- Area under graph -->
<path d="M100 600V450L250 300L350 380L550 150L700 200V600H100Z" fill="url(#paint1_linear)" fill-opacity="0.2"/>
<!-- Floating UI Cards -->
<rect x="50" y="50" width="200" height="120" rx="10" fill="#1E293B" stroke="#38BDF8" stroke-width="2"/>
<rect x="70" y="80" width="100" height="10" rx="5" fill="#38BDF8" fill-opacity="0.5"/>
<rect x="70" y="110" width="140" height="10" rx="5" fill="#38BDF8" fill-opacity="0.3"/>
<defs>
<linearGradient id="paint0_linear" x1="400" y1="0" x2="400" y2="600" gradientUnits="userSpaceOnUse">
<stop stop-color="#0F172A"/>
<stop offset="1" stop-color="#020617"/>
</linearGradient>
<linearGradient id="paint1_linear" x1="400" y1="150" x2="400" y2="600" gradientUnits="userSpaceOnUse">
<stop stop-color="#38BDF8"/>
<stop offset="1" stop-color="#38BDF8" stop-opacity="0"/>
</linearGradient>
</defs>
</svg>
