<svg width="800" height="600" viewBox="0 0 800 600" fill="none" xmlns="http://www.w3.org/2000/svg">
<rect width="800" height="600" fill="#0F172A"/>
<path d="M0 0H800V600H0V0Z" fill="url(#paint0_linear)"/>
<!-- Shield -->
<path d="M400 100C400 100 200 150 200 300C200 450 400 550 400 550C400 550 600 450 600 300C600 150 400 100 400 100Z" fill="#1E293B" stroke="#38BDF8" stroke-width="10"/>
<!-- Lock -->
<rect x="350" y="300" width="100" height="80" rx="10" fill="#38BDF8"/>
<path d="M370 300V270C370 253.431 383.431 240 400 240C416.569 240 430 253.431 430 270V300" stroke="#38BDF8" stroke-width="10" stroke-linecap="round"/>
<circle cx="400" cy="340" r="10" fill="#0F172A"/>
<!-- Binary Background -->
<text x="50" y="100" fill="#38BDF8" fill-opacity="0.1" font-family="monospace" font-size="24">101010101</text>
<text x="50" y="140" fill="#38BDF8" fill-opacity="0.1" font-family="monospace" font-size="24">010010110</text>
<text x="600" y="500" fill="#38BDF8" fill-opacity="0.1" font-family="monospace" font-size="24">101101011</text>
<defs>
<linearGradient id="paint0_linear" x1="400" y1="0" x2="400" y2="600" gradientUnits="userSpaceOnUse">
<stop stop-color="#0F172A"/>
<stop offset="1" stop-color="#020617"/>
</linearGradient>
</defs>
</svg>
